<svg xmlns="http://www.w3.org/2000/svg" viewBox="0 0 512 512">
  <defs>
    <linearGradient id="bg" x1="0" y1="0" x2="1" y2="1">
      <stop offset="0%" stop-color="#ffd1dc"/>
      <stop offset="25%" stop-color="#ffe5b8"/>
      <stop offset="50%" stop-color="#fff5b3"/>
      <stop offset="75%" stop-color="#c8f0d0"/>
      <stop offset="100%" stop-color="#c5e3f6"/>
    </linearGradient>
    <linearGradient id="bow" x1="0" y1="0" x2="0" y2="1">
      <stop offset="0%" stop-color="#fff" stop-opacity=".9"/>
      <stop offset="100%" stop-color="#fff" stop-opacity=".4"/>
    </linearGradient>
  </defs>
  <rect width="512" height="512" rx="96" fill="url(#bg)"/>
  <!-- 彩虹 -->
  <path d="M 96 360 A 160 160 0 0 1 416 360" fill="none" stroke="#ff7090" stroke-width="22" stroke-linecap="round"/>
  <path d="M 128 360 A 128 128 0 0 1 384 360" fill="none" stroke="#ffa050" stroke-width="22" stroke-linecap="round"/>
  <path d="M 160 360 A 96 96 0 0 1 352 360" fill="none" stroke="#ffd040" stroke-width="22" stroke-linecap="round"/>
  <path d="M 192 360 A 64 64 0 0 1 320 360" fill="none" stroke="#60c080" stroke-width="22" stroke-linecap="round"/>
  <path d="M 224 360 A 32 32 0 0 1 288 360" fill="none" stroke="#5a9ee0" stroke-width="22" stroke-linecap="round"/>
  <!-- 雲 -->
  <ellipse cx="100" cy="380" rx="48" ry="28" fill="#fff"/>
  <ellipse cx="412" cy="380" rx="48" ry="28" fill="#fff"/>
  <!-- 笑臉 -->
  <circle cx="256" cy="220" r="80" fill="#fff5b3" stroke="#ffd040" stroke-width="8"/>
  <circle cx="228" cy="210" r="8" fill="#4a3a1e"/>
  <circle cx="284" cy="210" r="8" fill="#4a3a1e"/>
  <path d="M 220 240 Q 256 270 292 240" fill="none" stroke="#4a3a1e" stroke-width="8" stroke-linecap="round"/>
</svg>
