<svg xmlns="http://www.w3.org/2000/svg" viewBox="0 0 512 512">
  <defs>
    <pattern id="dots" x="0" y="0" width="20" height="20" patternUnits="userSpaceOnUse">
      <circle cx="10" cy="10" r="2" fill="#ffd23f" opacity="0.18"></circle>
    </pattern>
  </defs>

  
  <rect width="512" height="512" rx="112" fill="#2a1f4a"></rect>
  <rect width="512" height="512" rx="112" fill="url(#dots)"></rect>

  
  <rect x="6" y="6" width="500" height="500" rx="108" fill="none" stroke="#1a1230" stroke-width="12"></rect>

  
  <circle cx="266" cy="216" r="108" fill="#ff6b6b" opacity="0.95"></circle>

  
  <circle cx="256" cy="206" r="108" fill="#ffd23f" stroke="#1a1230" stroke-width="14"></circle>

  
  <circle cx="222" cy="190" r="11" fill="#2a1f4a"></circle>
  <circle cx="290" cy="190" r="11" fill="#2a1f4a"></circle>
  <path d="M 214 226 Q 256 262 298 226" fill="none" stroke="#2a1f4a" stroke-width="12" stroke-linecap="round"></path>

  
  <path d="M 72 412 A 184 184 0 0 1 440 412" fill="none" stroke="#1a1230" stroke-width="36" stroke-linecap="round"></path>
  <path d="M 84 412 A 172 172 0 0 1 428 412" fill="none" stroke="#ff6b6b" stroke-width="24" stroke-linecap="round"></path>
  <path d="M 124 412 A 132 132 0 0 1 388 412" fill="none" stroke="#ff9d4d" stroke-width="22" stroke-linecap="round"></path>
  <path d="M 164 412 A 92 92 0 0 1 348 412" fill="none" stroke="#6bcb77" stroke-width="22" stroke-linecap="round"></path>
  <path d="M 204 412 A 52 52 0 0 1 308 412" fill="none" stroke="#4d96ff" stroke-width="22" stroke-linecap="round"></path>

  
  <ellipse cx="74" cy="416" rx="36" ry="20" fill="#fff" stroke="#1a1230" stroke-width="10"></ellipse>
  <ellipse cx="438" cy="416" rx="36" ry="20" fill="#fff" stroke="#1a1230" stroke-width="10"></ellipse>

  
  <path d="M 408 80 L 416 102 L 438 110 L 416 118 L 408 140 L 400 118 L 378 110 L 400 102 Z" fill="#ffd23f" stroke="#1a1230" stroke-width="6" stroke-linejoin="round"></path>
</svg>